{"title":"Dawn of the Planet of the Apes 2014 DVDRIP Dual Audio English Hi","uid":11309017,"size":948756598,"categoryP":"video","categoryS":"movies","magnet":"?xt=urn:btih:55525ea051e7a595df55a4fb5efc3787dc25821c&amp;dn=Dawn+of+the+Planet+of+the+Apes+2014+DVDRIP+Dual+Audio+English+Hi&amp;tr=udp%3A%2F%2Ftracker.openbittorrent.com%3A80&amp;tr=udp%3A%2F%2Fopen.demonii.com%3A1337&amp;tr=udp%3A%2F%2Ftracker.coppersurfer.tk%3A6969&amp;tr=udp%3A%2F%2Fexodus.desync.com%3A6969","seeders":4,"leechers":0,"uploader":"jatt13","files":1,"time":1414456437,"description":"General\nUnique ID                      : 203289920654253814045769944716390574044 (0x98F036ED46220FFCB7F419A2FF7A27DC)\nComplete name                  : H:Dawn of the Planet of the Apes 2014 DVDRIP Dual Audio English Hindi Audio CAM GOPI SAHI PDR.mkv\nFormat                         : Matroska\nFormat version                 : Version 4 / Version 2\nFile size                      : 905 MiB\nDuration                       : 2h 10mn\nOverall bit rate               : 968 Kbps\nMovie name                     : Dawn of the Planet of teh Apes 2014 GOPI SAHI\nEncoded date                   : UTC 2014-10-29 00:52:22\nWriting application            : mkvmerge v6.5.0 ('Isn't she lovely') built on Oct 20 2013 12:50:05\nWriting library                : libebml v1.3.0 + libmatroska v1.4.1\n\nVideo\nID                             : 1\nFormat                         : MPEG-4 Visual\nFormat profile                 : Advanced Simple@L5\nFormat settings, BVOP          : Yes\nFormat settings, QPel          : No\nFormat settings, GMC           : No warppoints\nFormat settings, Matrix        : Default (H.263)\nCodec ID                       : V_MS/VFW/FOURCC / XVID\nCodec ID/Hint                  : XviD\nDuration                       : 2h 10mn\nBit rate                       : 773 Kbps\nWidth                          : 720 pixels\nHeight                         : 384 pixels\nDisplay aspect ratio           : 1.85:1\nFrame rate mode                : Constant\nFrame rate                     : 23.976 fps\nColor space                    : YUV\nChroma subsampling             : 4:2:0\nBit depth                      : 8 bits\nScan type                      : Progressive\nCompression mode               : Lossy\nBits/(Pixel*Frame)             : 0.117\nStream size                    : 722 MiB (80%)\nTitle                          : GOPI SAHI\nWriting library                : XviD 64\nLanguage                       : English\nDefault                        : Yes\nForced                         : No\n\nAudio #1\nID                             : 2\nFormat                         : MPEG Audio\nFormat version                 : Version 1\nFormat profile                 : Layer 3\nMode                           : Joint stereo\nMode extension                 : MS Stereo\nCodec ID                       : A_MPEG/L3\nCodec ID/Hint                  : MP3\nDuration                       : 2h 10mn\nBit rate mode                  : Constant\nBit rate                       : 128 Kbps\nChannel(s)                     : 2 channels\nSampling rate                  : 48.0 KHz\nCompression mode               : Lossy\nStream size                    : 119 MiB (13%)\nTitle                          : GOPI SAHI\nWriting library                : LAME3.99r\nEncoding settings              : -m j -V 4 -q 2 -lowpass 17 -b 128\nLanguage                       : English\nDefault                        : No\nForced                         : No\n\nAudio #2\nID                             : 3\nFormat                         : MPEG Audio\nFormat version                 : Version 1\nFormat profile                 : Layer 3\nMode                           : Joint stereo\nMode extension                 : MS Stereo\nCodec ID                       : A_MPEG/L3\nCodec ID/Hint                  : MP3\nDuration                       : 2h 10mn\nBit rate mode                  : Constant\nBit rate                       : 48.0 Kbps\nChannel(s)                     : 2 channels\nSampling rate                  : 44.1 KHz\nCompression mode               : Lossy\nStream size                    : 44.9 MiB (5%)\nTitle                          : GOPI SAHI\nLanguage                       : Hindi\nDefault                        : Yes\nForced                         : No\n\nText\nID                             : 4\nFormat                         : UTF-8\nCodec ID                       : S_TEXT/UTF8\nCodec ID/Info                  : UTF-8 Plain Text\nTitle                          : GOPI SAHI\nLanguage                       : English\nDefault                        : Yes\nForced                         : No\n[IMG]http://imgchicken.com/images/07309055514055542359.jpg[/IMG]\n[IMG]http://imgchicken.com/images/89083931219317312917.jpg[/IMG]\n[IMG]http://imgchicken.com/images/15988443580316366553.jpg[/IMG]\n[IMG]http://imgchicken.com/images/72490480179678142222.jpg[/IMG]","torrent":{"xt":"urn:btih:55525ea051e7a595df55a4fb5efc3787dc25821c","amp;dn":"Dawn+of+the+Planet+of+the+Apes+2014+DVDRIP+Dual+Audio+English+Hi","amp;tr":["udp%3A%2F%2Ftracker.openbittorrent.com%3A80","udp%3A%2F%2Fopen.demonii.com%3A1337","udp%3A%2F%2Ftracker.coppersurfer.tk%3A6969","udp%3A%2F%2Fexodus.desync.com%3A6969"],"infoHash":"55525ea051e7a595df55a4fb5efc3787dc25821c","infoHashBuffer":{"type":"Buffer","data":[85,82,94,160,81,231,165,149,223,85,164,251,94,252,55,135,220,37,130,28]},"announce":[],"urlList":[]}}